<?xml version="1.0" encoding="UTF-8" standalone="no" ?>
<!DOCTYPE svg PUBLIC "-//W3C//DTD SVG 1.1//EN" "http://www.w3.org/Graphics/SVG/1.1/DTD/svg11.dtd">
<svg xmlns="http://www.w3.org/2000/svg" xmlns:xlink="http://www.w3.org/1999/xlink" version="1.1" width="500" height="500" viewBox="0 0 500 500" xml:space="preserve">
<desc>Created with Fabric.js 5.3.0</desc>
<defs>
</defs>
<g transform="matrix(1 0 0 1 250 250)" id="as9dzXCTRyZbKcEiozYpO"  >
<path style="stroke: rgb(255,255,255); stroke-width: 1; stroke-dasharray: none; stroke-linecap: butt; stroke-dashoffset: 0; stroke-linejoin: miter; stroke-miterlimit: 4; fill: rgb(103,58,184); fill-rule: nonzero; opacity: 1;"  transform=" translate(-11.9995, -12)" d="M 12 10.406 C 11.119658108769716 10.406 10.406 11.119658108769716 10.406 12 C 10.406 12.880341891230284 11.119658108769716 13.594 12 13.594 C 12.880341891230284 13.594 13.594 12.880341891230284 13.594 12 C 13.594 11.119658108769716 12.880341891230284 10.406 12 10.406 Z M 17.499 6.0760000000000005 C 17.714651881187766 6.070814786255398 17.93023356488567 6.088919624388659 18.142 6.130000000000001 C 18.30986929503072 6.162395026895467 18.47176034220618 6.220405985466674 18.622 6.3020000000000005 C 18.731516175322177 6.362992653555884 18.82963446443858 6.442502301632969 18.912 6.537 C 18.991907865847995 6.630163320377919 19.054555835819208 6.736834188166739 19.096999999999998 6.852 C 19.14879313146116 6.9972586183161525 19.17714748842731 7.1498320629435135 19.180999999999997 7.304 C 19.188 7.499000000000001 19.165999999999997 7.702000000000001 19.122999999999998 7.907000000000001 C 19.069 8.168000000000001 18.982999999999997 8.428 18.878999999999998 8.685 C 18.741999999999997 9.019 18.575 9.345 18.389 9.663 C 18.144 10.08 17.869 10.481 17.572 10.870000000000001 C 17.427 11.061000000000002 17.272 11.246 17.117 11.431000000000001 C 16.897000000000002 11.193000000000001 16.674 10.959000000000001 16.444000000000003 10.731000000000002 C 15.795847478557059 10.093016664805727 15.11137346476545 9.493016761008885 14.394 8.933999999999997 L 14.164000000000001 9.23 L 14.394000000000002 8.934000000000001 L 14.376000000000001 8.920000000000002 L 13.915000000000001 9.512000000000002 L 13.933000000000002 9.526000000000002 C 14.627280869637202 10.067319660921534 15.289717264806331 10.64828706394285 15.916999999999996 11.266 C 16.158 11.503000000000002 16.392000000000003 11.746000000000002 16.62 11.996000000000002 C 16.521 12.104000000000003 16.426000000000002 12.216000000000003 16.324 12.322000000000003 C 16.225 12.426000000000002 16.124000000000002 12.529000000000003 16.023000000000003 12.630000000000003 L 16.553000000000004 13.160000000000002 C 16.659000000000006 13.055000000000001 16.763000000000005 12.948000000000002 16.866000000000003 12.840000000000002 C 16.951000000000004 12.752000000000002 17.030000000000005 12.658000000000001 17.114000000000004 12.568000000000001 C 17.179000000000006 12.646 17.249000000000006 12.72 17.312000000000005 12.799000000000001 C 17.63932701256202 13.201598679990202 17.942844504582684 13.622983800925379 18.221 14.060999999999995 C 18.432000000000002 14.397000000000002 18.625000000000004 14.742 18.785000000000004 15.097000000000001 C 18.904566815695215 15.357192547795842 19.00256285704755 15.626765275884521 19.078000000000003 15.903 C 19.134653740534965 16.111080817300106 19.16884891638836 16.324633042972774 19.180000000000003 16.540000000000003 C 19.188000000000002 16.718000000000004 19.173000000000002 16.891000000000002 19.130000000000003 17.048000000000002 C 19.096000000000004 17.171000000000003 19.043000000000003 17.287000000000003 18.973000000000003 17.386000000000003 L 18.972 17.386000000000003 C 18.904 17.484 18.815 17.572000000000003 18.712 17.642000000000003 C 18.591 17.725 18.448 17.788000000000004 18.294 17.833000000000002 C 18.106 17.887 17.904 17.914 17.694 17.923000000000002 C 17.427999999999997 17.933000000000003 17.156 17.913 16.88 17.873 C 16.523 17.822000000000003 16.166999999999998 17.739 15.812999999999999 17.635 C 15.348999999999998 17.498 14.892999999999999 17.328000000000003 14.443999999999999 17.135 L 14.443 17.135 C 13.859 16.882 13.29 16.592000000000002 12.733 16.275000000000002 L 12.708 16.26 C 13.286 15.883000000000001 13.852 15.490000000000002 14.394 15.066000000000003 L 14.184 14.796000000000003 L 14.395 15.066000000000003 L 14.413 15.051000000000002 L 13.950000000000001 14.461000000000002 L 13.933000000000002 14.475000000000001 C 13.238000000000001 15.017000000000001 12.515000000000002 15.522000000000002 11.765 15.98 C 11.17483542996812 16.341528810858925 10.564879662943651 16.669709718896726 9.938000000000002 16.963 C 9.465 17.182 8.984 17.378 8.494 17.539 C 8.120486719407566 17.663451470496906 7.73893902299802 17.762346495135457 7.352 17.835 C 7.066 17.887 6.781 17.921 6.499 17.925 C 6.277 17.928 6.061 17.912 5.856 17.87 C 5.681 17.834 5.518 17.778 5.376 17.698 C 5.265 17.635 5.166 17.556 5.086 17.464 C 5.007 17.373 4.944 17.265 4.901 17.149 C 4.85 17.012 4.823 16.857 4.817 16.696 C 4.812209315128512 16.493405964815228 4.831681096852811 16.290966578957438 4.875 16.093 C 4.93 15.832 5.015 15.573 5.12 15.316 C 5.259953526580887 14.978801384289635 5.423699519586321 14.651977749270625 5.609999999999999 14.338000000000001 C 5.979676518054853 13.711982902585278 6.40506670730093 13.120586785828536 6.880999999999998 12.571000000000002 C 7.113 12.822000000000001 7.3500000000000005 13.068000000000001 7.593 13.308000000000002 C 8.232391471719648 13.934084082858984 8.906809804575527 14.523365447953347 9.613000000000005 15.073000000000002 L 10.074 14.482000000000003 C 9.390534100701935 13.94976842322672 8.737818380563464 13.379184706747616 8.118999999999998 12.772999999999996 C 7.865 12.523 7.618 12.267 7.378 12.004 C 7.477 11.896 7.573 11.785 7.673 11.679 C 7.776 11.572 7.879 11.466 7.983 11.362 L 7.452999999999999 10.832 C 7.345 10.94 7.238 11.05 7.132 11.16 C 7.047 11.249 6.967 11.343 6.884 11.433 C 6.829 11.367 6.77 11.305 6.715 11.238 C 6.386 10.832 6.077 10.411 5.799 9.975 C 5.585 9.637 5.391 9.292 5.228 8.935 C 5.102 8.66 4.995 8.38 4.92 8.097 C 4.863 7.882 4.826 7.669 4.818 7.46 C 4.808638828424386 7.289437428873747 4.82550166935915 7.1184482217952425 4.868 6.953000000000002 C 4.902 6.829 4.955 6.714 5.025 6.614 L 5.026 6.614 C 5.094 6.516 5.184 6.428 5.286 6.358 C 5.414631879796931 6.27271162809387 5.55608855593022 6.208566595957057 5.705 6.168 C 5.892 6.113 6.094 6.086 6.304 6.078 C 6.576223449256102 6.069578695216498 6.848652893194151 6.085643330731272 7.1179999999999986 6.126 C 7.478900631968433 6.1806351703653455 7.8354645791057 6.260836995400908 8.184999999999999 6.3660000000000005 C 8.650971555338657 6.5049890925974605 9.108135070243588 6.671958966558356 9.553999999999998 6.8660000000000005 C 10.148634245578448 7.124472199030895 10.728220861556537 7.416268686568248 11.289999999999992 7.739999999999994 C 10.70825370003832 8.116035531116841 10.143057976500886 8.51707759705073 9.596 8.942000000000005 L 10.058 9.532 C 10.741 8.998 11.451 8.501 12.187999999999999 8.048 C 12.781999999999998 7.6850000000000005 13.390999999999998 7.351 14.017999999999999 7.058 C 14.491999999999999 6.835999999999999 14.973999999999998 6.638 15.466 6.475 C 15.8407695812171 6.348403863871631 16.223634804677413 6.247175100600711 16.611999999999995 6.172000000000002 C 16.91 6.116 17.207 6.08 17.499 6.076 Z M 17.488999999999997 5.3260000000000005 L 17.487999999999996 5.3260000000000005 C 17.142 5.331 16.804 5.373 16.474 5.434 C 16.052067732246957 5.515518400041196 15.636121584370539 5.62543509293384 15.228999999999996 5.763000000000001 C 14.707836657809558 5.938556759969159 14.19731025215086 6.144236462968345 13.699999999999989 6.379000000000003 C 13.117 6.651 12.554 6.961 12.004 7.289 C 11.883 7.216 11.761 7.144 11.637 7.074 C 11.06 6.745 10.466 6.442 9.852 6.177 C 9.38 5.974 8.897 5.792 8.397 5.646 C 8.017 5.534 7.625 5.442 7.225 5.384 C 6.916 5.34 6.599 5.316 6.275 5.329 C 6.021 5.339 5.759 5.372 5.499 5.446 C 5.281 5.51 5.063 5.602 4.863 5.74 C 4.509633785101428 5.980571595068433 4.255020925463106 6.340651706188737 4.146 6.7540000000000004 C 4.078 7.001 4.059 7.251 4.069 7.491 C 4.082295445258198 7.760815748507536 4.1248788540158685 8.028387088575414 4.196000000000001 8.289000000000001 C 4.285607781299706 8.618037205968864 4.4030307263157695 8.938859440357483 4.546999999999999 9.247999999999998 C 4.72805834851037 9.637518122342538 4.9351955695254635 10.014374227673228 5.166999999999999 10.376000000000001 C 5.463215944161006 10.839345813634079 5.786092937109616 11.285096367497982 6.133999999999999 11.710999999999999 C 6.2139999999999995 11.809 6.3 11.900999999999998 6.382 11.996999999999998 C 6.193 12.219 6.007 12.443 5.83 12.676 C 5.519 13.084 5.226 13.51 4.963 13.958 C 4.758343453573419 14.303090380057743 4.578554211302343 14.662334683852178 4.424999999999998 15.033000000000003 C 4.303543752697212 15.326537014250064 4.208826262887299 15.6304362395059 4.142 15.941 C 4.089 16.19 4.059 16.453 4.069 16.723 C 4.075015939872439 16.95783601814111 4.1189143135541775 17.19015971885677 4.199 17.410999999999998 L 4.199 17.412 C 4.347120089956545 17.8125771153268 4.634705325222748 18.146318005635724 5.009 18.352 C 5.226844212747785 18.471887010088544 5.461976196797733 18.55723620946392 5.7059999999999995 18.605 C 5.97097202806135 18.657659649821465 6.2409155675126 18.681133001078095 6.510999999999998 18.675 C 6.838915677093916 18.667895984298095 7.165688216904376 18.633780529783596 7.487999999999999 18.573 L 7.489000000000001 18.572 C 7.909119076048826 18.493609336957103 8.323411141380417 18.38669525558121 8.729 18.252 C 9.252 18.079 9.760000000000002 17.872 10.255 17.642 C 10.854000000000001 17.364 11.433 17.049 11.997 16.712 C 12.118 16.784 12.24 16.855999999999998 12.363 16.926 C 12.94090414970821 17.258171138485228 13.536823104403888 17.557966780679468 14.147999999999998 17.823999999999998 C 14.62188826197957 18.029796360319015 15.107772746625828 18.206785210396344 15.603000000000002 18.354 C 15.983 18.465999999999998 16.375 18.558 16.775 18.616 C 17.089337730789584 18.66320256899406 17.407293556953547 18.681945228220567 17.724999999999998 18.672 C 17.979 18.662 18.241 18.628 18.500999999999998 18.554000000000002 C 18.718999999999998 18.491000000000003 18.936999999999998 18.398000000000003 19.136999999999997 18.26 C 19.49030212796475 18.019363176953505 19.744896214378933 17.659309615413783 19.853999999999996 17.246000000000002 C 19.921999999999997 16.998 19.940999999999995 16.749000000000002 19.930999999999997 16.51 C 19.919999999999998 16.233 19.871 15.966000000000001 19.804 15.711000000000002 C 19.718999999999998 15.389000000000003 19.601999999999997 15.082000000000003 19.468999999999998 14.788000000000002 C 19.290999999999997 14.395000000000001 19.081999999999997 14.021000000000003 18.857 13.661000000000001 C 18.563 13.195000000000002 18.239 12.753000000000002 17.898 12.328000000000001 C 17.808 12.217 17.71 12.112000000000002 17.618 12.004000000000001 C 17.807 11.782000000000002 17.991999999999997 11.557000000000002 18.169999999999998 11.325000000000001 C 18.480999999999998 10.916 18.773999999999997 10.490000000000002 19.037 10.042000000000002 C 19.241653565837336 9.696907992973044 19.421442699817426 9.337663905559292 19.575000000000003 8.966999999999999 C 19.696414392775996 8.673791376206712 19.791131546442017 8.370227919050953 19.858 8.060000000000002 C 19.911 7.81 19.941 7.547 19.931 7.277 C 19.924 7.051 19.886 6.817 19.801 6.589 L 19.801 6.588 C 19.652879910043453 6.187422884673201 19.36529467477725 5.853681994364274 18.991 5.647999999999999 C 18.767 5.522 18.529 5.444 18.294 5.396 C 18.029026839167095 5.343348304865934 17.759084175215026 5.319875029739666 17.489 5.325999999999999 Z M 12 0 L 22.392 6 L 22.392 18 L 12 24 L 1.607 18 L 1.607 6 Z" stroke-linecap="round" />
</g>
</svg>