<svg width="24" height="24" xmlns="http://www.w3.org/2000/svg" role="img" fill="#673AB8">
 <title>Preact</title>

 <g>
  <title>Preact color filled</title>
  <ellipse stroke="#ffffff" ry="9.54887" rx="9.62406" id="svg_2" cy="12.07519" cx="12" fill="#ffffff"/>
  <path stroke="null" id="svg_1" d="m12,10.406a1.594,1.594 0 0 0 -1.594,1.594a1.594,1.594 0 0 0 1.594,1.594a1.594,1.594 0 0 0 1.594,-1.594a1.594,1.594 0 0 0 -1.594,-1.594zm5.499,-4.33a2.998,2.998 0 0 1 0.643,0.054a1.668,1.668 0 0 1 0.48,0.172a1.085,1.085 0 0 1 0.29,0.235a1.032,1.032 0 0 1 0.185,0.315a1.454,1.454 0 0 1 0.084,0.452c0.007,0.195 -0.015,0.398 -0.058,0.603c-0.054,0.261 -0.14,0.521 -0.244,0.778c-0.137,0.334 -0.304,0.66 -0.49,0.978c-0.245,0.417 -0.52,0.818 -0.817,1.207c-0.145,0.191 -0.3,0.376 -0.455,0.561c-0.22,-0.238 -0.443,-0.472 -0.673,-0.7a23.61,23.61 0 0 0 -2.05,-1.797l-0.23,0.296l0.23,-0.296l-0.018,-0.014l-0.461,0.592l0.018,0.014a22.864,22.864 0 0 1 1.984,1.74c0.241,0.237 0.475,0.48 0.703,0.73c-0.099,0.108 -0.194,0.22 -0.296,0.326c-0.099,0.104 -0.2,0.207 -0.301,0.308l0.53,0.53c0.106,-0.105 0.21,-0.212 0.313,-0.32c0.085,-0.088 0.164,-0.182 0.248,-0.272c0.065,0.078 0.135,0.152 0.198,0.231a13.317,13.317 0 0 1 0.909,1.262c0.211,0.336 0.404,0.681 0.564,1.036a5.23,5.23 0 0 1 0.293,0.806a3.019,3.019 0 0 1 0.102,0.637c0.008,0.178 -0.007,0.351 -0.05,0.508c-0.034,0.123 -0.087,0.239 -0.157,0.338l-0.001,0c-0.068,0.098 -0.157,0.186 -0.26,0.256c-0.121,0.083 -0.264,0.146 -0.418,0.191c-0.188,0.054 -0.39,0.081 -0.6,0.09c-0.266,0.01 -0.538,-0.01 -0.814,-0.05c-0.357,-0.051 -0.713,-0.134 -1.067,-0.238c-0.464,-0.137 -0.92,-0.307 -1.369,-0.5l-0.001,0c-0.584,-0.253 -1.153,-0.543 -1.71,-0.86l-0.025,-0.015c0.578,-0.377 1.144,-0.77 1.686,-1.194l-0.21,-0.27l0.211,0.27l0.018,-0.015l-0.463,-0.59l-0.017,0.014c-0.695,0.542 -1.418,1.047 -2.168,1.505a18.53,18.53 0 0 1 -1.827,0.983c-0.473,0.219 -0.954,0.415 -1.444,0.576a8.68,8.68 0 0 1 -1.142,0.296c-0.286,0.052 -0.571,0.086 -0.853,0.09c-0.222,0.003 -0.438,-0.013 -0.643,-0.055c-0.175,-0.036 -0.338,-0.092 -0.48,-0.172c-0.111,-0.063 -0.21,-0.142 -0.29,-0.234c-0.079,-0.091 -0.142,-0.199 -0.185,-0.315c-0.051,-0.137 -0.078,-0.292 -0.084,-0.453a2.54,2.54 0 0 1 0.058,-0.603c0.055,-0.261 0.14,-0.52 0.245,-0.777a7.704,7.704 0 0 1 0.49,-0.978a12.09,12.09 0 0 1 1.271,-1.767c0.232,0.251 0.469,0.497 0.712,0.737a23.645,23.645 0 0 0 2.02,1.765l0.461,-0.591a22.9,22.9 0 0 1 -1.955,-1.709c-0.254,-0.25 -0.501,-0.506 -0.741,-0.769c0.099,-0.108 0.195,-0.219 0.295,-0.325c0.103,-0.107 0.206,-0.213 0.31,-0.317l-0.53,-0.53c-0.108,0.108 -0.215,0.218 -0.321,0.328c-0.085,0.089 -0.165,0.183 -0.248,0.273c-0.055,-0.066 -0.114,-0.128 -0.169,-0.195c-0.329,-0.406 -0.638,-0.827 -0.916,-1.263c-0.214,-0.338 -0.408,-0.683 -0.571,-1.04c-0.126,-0.275 -0.233,-0.555 -0.308,-0.838c-0.057,-0.215 -0.094,-0.428 -0.102,-0.637a1.67,1.67 0 0 1 0.05,-0.507c0.034,-0.124 0.087,-0.239 0.157,-0.339l0.001,0c0.068,-0.098 0.158,-0.186 0.26,-0.256a1.446,1.446 0 0 1 0.419,-0.19c0.187,-0.055 0.389,-0.082 0.599,-0.09a4.545,4.545 0 0 1 0.814,0.048a7.708,7.708 0 0 1 1.067,0.24a12.092,12.092 0 0 1 1.369,0.5a17.248,17.248 0 0 1 1.736,0.874a24.003,24.003 0 0 0 -1.694,1.202l0.462,0.59c0.683,-0.534 1.393,-1.031 2.13,-1.484c0.594,-0.363 1.203,-0.697 1.83,-0.99c0.474,-0.222 0.956,-0.42 1.448,-0.583a8.816,8.816 0 0 1 1.146,-0.303c0.298,-0.056 0.595,-0.092 0.887,-0.096zm-0.01,-0.75l-0.001,0c-0.346,0.005 -0.684,0.047 -1.014,0.108a9.546,9.546 0 0 0 -1.245,0.329a14.202,14.202 0 0 0 -1.529,0.616c-0.583,0.272 -1.146,0.582 -1.696,0.91c-0.121,-0.073 -0.243,-0.145 -0.367,-0.215c-0.577,-0.329 -1.171,-0.632 -1.785,-0.897c-0.472,-0.203 -0.955,-0.385 -1.455,-0.531c-0.38,-0.112 -0.772,-0.204 -1.172,-0.262c-0.309,-0.044 -0.626,-0.068 -0.95,-0.055c-0.254,0.01 -0.516,0.043 -0.776,0.117c-0.218,0.064 -0.436,0.156 -0.636,0.294a1.774,1.774 0 0 0 -0.717,1.014c-0.068,0.247 -0.087,0.497 -0.077,0.737a3.728,3.728 0 0 0 0.127,0.798a6.016,6.016 0 0 0 0.351,0.959a9.548,9.548 0 0 0 0.62,1.128a14.203,14.203 0 0 0 0.967,1.335c0.08,0.098 0.166,0.19 0.248,0.286c-0.189,0.222 -0.375,0.446 -0.552,0.679c-0.311,0.408 -0.604,0.834 -0.867,1.282a8.44,8.44 0 0 0 -0.538,1.075a5.28,5.28 0 0 0 -0.283,0.908c-0.053,0.249 -0.083,0.512 -0.073,0.782a2.182,2.182 0 0 0 0.13,0.688l0,0.001a1.775,1.775 0 0 0 0.81,0.94a2.403,2.403 0 0 0 0.697,0.253a3.699,3.699 0 0 0 0.805,0.07a5.97,5.97 0 0 0 0.977,-0.102l0.001,-0.001a9.412,9.412 0 0 0 1.24,-0.32c0.523,-0.173 1.031,-0.38 1.526,-0.61c0.599,-0.278 1.178,-0.593 1.742,-0.93c0.121,0.072 0.243,0.144 0.366,0.214a17.99,17.99 0 0 0 1.785,0.898a12.832,12.832 0 0 0 1.455,0.53c0.38,0.112 0.772,0.204 1.172,0.262a5.284,5.284 0 0 0 0.95,0.056c0.254,-0.01 0.516,-0.044 0.776,-0.118c0.218,-0.063 0.436,-0.156 0.636,-0.294a1.775,1.775 0 0 0 0.717,-1.014c0.068,-0.248 0.087,-0.497 0.077,-0.736c-0.011,-0.277 -0.06,-0.544 -0.127,-0.799c-0.085,-0.322 -0.202,-0.629 -0.335,-0.923c-0.178,-0.393 -0.387,-0.767 -0.612,-1.127c-0.294,-0.466 -0.618,-0.908 -0.959,-1.333c-0.09,-0.111 -0.188,-0.216 -0.28,-0.324c0.189,-0.222 0.374,-0.447 0.552,-0.679c0.311,-0.409 0.604,-0.835 0.867,-1.283a8.441,8.441 0 0 0 0.538,-1.075a5.277,5.277 0 0 0 0.283,-0.907c0.053,-0.25 0.083,-0.513 0.073,-0.783c-0.007,-0.226 -0.045,-0.46 -0.13,-0.688l0,-0.001a1.775,1.775 0 0 0 -0.81,-0.94c-0.224,-0.126 -0.462,-0.204 -0.697,-0.252a3.7,3.7 0 0 0 -0.805,-0.07zm-5.489,-5.326l10.392,6l0,12l-10.392,6l-10.393,-6l0,-12l10.393,-6z"/>
 </g>
</svg>
